<svg width="91" height="184" viewBox="0 0 91 184" fill="none" xmlns="http://www.w3.org/2000/svg">
<path d="M82.5041 41.4409C82.5041 22.7949 81.4591 15.123 76.7351 10.28C72.0111 5.43697 53.1841 2.03796 45.2151 2.03796C37.2471 2.03796 18.4191 5.43697 13.6951 10.28C8.97111 15.123 7.92611 21.8519 7.92611 41.4409C7.92611 68.2719 4.74911 168.725 12.8871 175.469C21.0251 182.212 37.0281 182.482 45.2151 182.482C53.4031 182.482 69.4061 182.212 77.5431 175.469C85.6821 168.725 82.5041 68.2719 82.5041 41.4409Z" fill="#EDEDED"/>
<path d="M45.2151 161.936C23.8121 161.936 13.3991 156.125 8.36611 150.974C9.18511 164.122 10.5811 173.558 12.8871 175.468C21.0251 182.211 37.0281 182.481 45.2151 182.481C53.4021 182.481 69.4051 182.211 77.5431 175.468C79.8481 173.557 81.2451 164.122 82.0641 150.974C77.0321 156.125 66.6191 161.936 45.2151 161.936Z" fill="#14181E"/>
<path d="M79.3001 45.6689C79.3001 27.6189 78.3451 20.947 74.0271 16.52C69.7091 12.093 52.5001 10.28 45.2161 10.28C37.9321 10.28 20.7231 12.093 16.4051 16.52C12.0871 20.947 11.1321 25.6239 11.1321 45.6689C11.1321 49.8409 11.6041 56.122 12.8361 62.315C15.1401 67.57 16.3781 76.2589 17.2381 84.7209C16.2541 86.0999 15.6751 88.822 15.6751 91.702C14.3731 95.637 15.3451 103.949 15.6751 109.078C15.6931 109.359 15.6571 110.251 15.6751 110.531C15.6751 110.531 14.8971 128.245 15.6751 136.065C15.8631 137.957 16.2941 140.576 16.6231 141.163C16.8941 143.565 13.6521 153.589 13.9891 155.435C14.6661 159.139 14.6251 167.594 15.6661 168.458C23.1041 174.622 37.7321 174.868 45.2161 174.868C52.7001 174.868 67.3271 174.621 74.7661 168.458C75.8081 167.595 75.7661 159.139 76.4441 155.435C76.7811 153.59 73.5401 143.565 73.8101 141.163C74.3171 139.776 74.5691 137.957 74.7571 136.065C75.5351 128.246 74.7571 110.531 74.7571 110.531C74.7751 110.251 74.7391 109.359 74.7571 109.078C75.0871 103.949 76.0591 95.637 74.7571 91.702C74.7571 88.822 74.1781 86.0999 73.1941 84.7209C74.0541 76.2589 75.2921 67.57 77.5961 62.315C78.8281 56.122 79.3001 49.8409 79.3001 45.6689Z" fill="white"/>
<path d="M82.7321 62.315C82.6101 53.611 82.5051 46.3039 82.5051 41.4409C82.5051 22.7949 81.4601 15.123 76.7361 10.28C72.0121 5.43697 53.1851 2.03796 45.2161 2.03796C37.2471 2.03796 18.4201 5.43697 13.6961 10.28C8.97211 15.123 7.92712 21.8519 7.92712 41.4409C7.92712 46.3039 7.82211 53.611 7.70011 62.315H82.7321Z" fill="#14181E"/>
<path d="M74.0271 16.52C69.7091 12.093 52.5001 10.28 45.2161 10.28C37.9321 10.28 20.7231 12.093 16.4051 16.52C12.0871 20.947 11.1321 25.6239 11.1321 45.6689C11.1321 49.8409 11.6041 56.122 12.8361 62.315H77.5961C78.8281 56.121 79.3001 49.8409 79.3001 45.6689C79.3001 27.6189 78.3441 20.947 74.0271 16.52Z" fill="#323D41"/>
<path d="M15.6741 109.078V90.838L10.7131 64.1C9.72311 73.693 9.64912 92.313 9.83912 109.078H15.6741Z" fill="#282F3A"/>
<path d="M9.85712 110.531C10.0731 128.066 10.5621 143.193 10.5621 143.193L15.6751 136.065V110.531H9.85712Z" fill="#282F3A"/>
<path d="M45.2151 52.4419C45.2151 52.4419 26.5931 52.2039 12.8351 62.3149L17.2371 84.7209C17.2371 84.7209 24.8081 78.2539 45.2151 78.2539C65.6221 78.2539 73.1931 84.7209 73.1931 84.7209L77.5951 62.3149C63.8371 52.2039 45.2151 52.4419 45.2151 52.4419Z" fill="#282F3A"/>
<path d="M74.7571 109.078V90.838L79.7181 64.1C80.7091 73.693 80.7821 92.313 80.5921 109.078H74.7571Z" fill="#3A454F"/>
<path d="M80.5741 110.531C80.3581 128.066 79.8691 143.193 79.8691 143.193L74.7561 136.065V110.531H80.5741Z" fill="#3A454F"/>
<path d="M73.8091 141.163C66.8701 143.065 23.5611 143.065 16.6221 141.163C16.6221 141.163 13.3531 149.799 13.9881 155.435C18.6861 158.298 28.6351 161.936 45.2151 161.936C61.7951 161.936 71.7451 158.298 76.4421 155.435C77.0781 149.799 73.8091 141.163 73.8091 141.163Z" fill="#282F3A"/>
<path d="M8.98612 69.1289L1.25712 71.0369C0.558119 71.2089 -0.101884 70.6039 0.013116 69.8769C0.238116 68.4609 1.05312 66.4279 3.80212 65.6429C8.20512 64.3859 8.98612 69.1289 8.98612 69.1289Z" fill="#323635"/>
<path d="M81.4451 69.1289L89.1741 71.0369C89.8731 71.2089 90.5331 70.6039 90.4181 69.8769C90.1931 68.4609 89.3781 66.4279 86.6291 65.6429C82.2261 64.3859 81.4451 69.1289 81.4451 69.1289Z" fill="#323635"/>
<path d="M73.1941 84.7209L77.5961 62.3149C63.8381 52.2039 45.2161 52.4419 45.2161 52.4419V78.2539C65.6231 78.2529 73.1941 84.7209 73.1941 84.7209Z" fill="#3A454F"/>
<path d="M73.8091 141.163C73.5751 141.227 73.3211 141.284 73.0551 141.336C72.9841 141.35 72.8931 141.363 72.8181 141.376C72.6611 141.404 72.5081 141.433 72.3421 141.457C67.5801 142.212 56.4061 142.59 45.2151 142.59V161.936C61.7951 161.936 71.7451 158.298 76.4421 155.435C77.0781 149.799 73.8091 141.163 73.8091 141.163Z" fill="#3A454F"/>
<path d="M57.7731 179.632C49.4071 180.302 41.0241 180.302 32.6581 179.632C32.1291 179.59 31.6091 179.847 31.1761 180.311C30.2981 181.252 30.9201 182.792 32.2051 182.861C37.1311 183.123 41.6361 183.157 45.2151 183.157C48.7981 183.157 53.3091 183.123 58.2411 182.86C59.4341 182.796 60.1481 181.4 59.3961 180.473C58.9371 179.907 58.3611 179.585 57.7731 179.632Z" fill="#282F3A"/>
<path d="M26.3381 180.248C26.3401 180.238 26.3421 180.229 26.3441 180.219C26.5121 179.438 26.0341 178.674 25.2751 178.489C23.0151 177.94 20.7721 177.296 18.5511 176.557C17.8091 176.31 17.0131 176.708 16.7601 177.465C16.7571 177.474 16.7541 177.483 16.7511 177.493C16.7051 177.63 16.7041 177.769 16.6991 177.907C19.4591 179.303 22.6441 180.273 25.9411 180.946C26.1241 180.755 26.2771 180.529 26.3381 180.248Z" fill="#DD3E3E"/>
<path d="M73.6711 177.466C73.4181 176.709 72.6221 176.311 71.8801 176.558C69.6591 177.297 67.4151 177.941 65.1561 178.49C64.3971 178.675 63.9191 179.439 64.0871 180.22C64.0891 180.23 64.0911 180.239 64.0931 180.249C64.1531 180.53 64.3061 180.756 64.4911 180.948C67.7871 180.275 70.9721 179.304 73.7331 177.909C73.7271 177.771 73.7261 177.632 73.6811 177.495C73.6771 177.484 73.6741 177.475 73.6711 177.466Z" fill="#DD3E3E"/>
<path d="M63.0671 6.25092C64.0311 6.46092 65.0101 5.84694 65.2401 4.88794C65.2421 4.87994 65.2441 4.87192 65.2461 4.86292C65.3361 4.48592 65.1141 4.10092 64.7391 4.00192C57.7781 2.16492 49.7441 1.06592 45.2151 1.06592C40.6861 1.06592 32.6521 2.16492 25.6921 4.00192C25.3161 4.10092 25.0941 4.48592 25.1851 4.86392C25.1871 4.87292 25.1891 4.88193 25.1911 4.89093C25.4211 5.84893 26.4001 6.46092 27.3631 6.25192C33.2191 4.97792 39.2561 3.68694 45.2151 3.68094C51.2271 3.67394 57.1601 4.96492 63.0671 6.25092Z" fill="#34383F"/>
<path d="M58.3771 40.2639C58.2261 41.0149 57.5231 41.568 56.7231 41.568H33.7081C32.9091 41.568 32.2051 41.0149 32.0541 40.2639L29.0541 25.356L31.5431 42.0609C31.6661 42.8859 32.3751 43.4969 33.2091 43.4969H57.2221C58.0561 43.4969 58.7651 42.8859 58.8881 42.0609L61.3771 25.356L58.3771 40.2639Z" fill="#3A454F"/>
<path d="M15.1491 10.519C14.7751 10.669 14.4011 10.82 14.0271 10.97C16.9531 9.793 19.8831 8.622 22.8191 7.457C23.4641 7.201 23.7801 6.472 23.5231 5.828C23.5201 5.82 23.5171 5.81199 23.5141 5.80399C23.4861 5.73299 23.4331 5.683 23.3941 5.62C19.7921 6.7 16.6541 7.98399 14.7061 9.41599C14.8541 9.78399 15.0021 10.151 15.1491 10.519Z" fill="#BDD6DB"/>
<path d="M14.0271 10.97C14.4011 10.819 14.7751 10.669 15.1491 10.519C15.0011 10.151 14.8531 9.78399 14.7061 9.41699C14.3221 9.69899 13.9821 9.987 13.6961 10.28C13.4801 10.502 13.2801 10.733 13.0791 10.963C13.3711 11.084 13.7091 11.098 14.0271 10.97Z" fill="#EC9100"/>
<path d="M67.7401 7.215C70.6141 8.525 73.4821 9.84099 76.3451 11.163C75.9791 10.994 75.6131 10.825 75.2461 10.656C75.4281 10.261 75.6111 9.866 75.7941 9.47C73.8621 8.024 70.7191 6.728 67.0981 5.638C66.8701 6.25 67.1371 6.94 67.7401 7.215Z" fill="#BDD6DB"/>
<path d="M75.7951 9.47095C75.6121 9.86595 75.4301 10.261 75.2471 10.657C75.6131 10.826 75.9801 10.995 76.3461 11.164C76.7241 11.338 77.1321 11.29 77.4701 11.103C77.2341 10.821 76.9921 10.5449 76.7351 10.2809C76.4681 10.0049 76.1491 9.73595 75.7951 9.47095Z" fill="#EC9100"/>
<path d="M7.32311 105.848H7.31011C6.94611 105.848 6.65211 105.553 6.65211 105.19V101.27C6.65211 100.907 6.94711 100.612 7.31011 100.612H7.32311C7.68611 100.612 7.98112 100.907 7.98112 101.27V105.19C7.98112 105.553 7.68611 105.848 7.32311 105.848Z" fill="#282F3A"/>
<path d="M7.32311 120.42H7.31011C6.94611 120.42 6.65211 120.125 6.65211 119.762V115.842C6.65211 115.478 6.94711 115.184 7.31011 115.184H7.32311C7.68611 115.184 7.98112 115.479 7.98112 115.842V119.762C7.98112 120.126 7.68611 120.42 7.32311 120.42Z" fill="#282F3A"/>
<path d="M83.1221 105.848H83.1091C82.7451 105.848 82.4511 105.553 82.4511 105.19V101.27C82.4511 100.907 82.7461 100.612 83.1091 100.612H83.1221C83.4851 100.612 83.7801 100.907 83.7801 101.27V105.19C83.7801 105.553 83.4851 105.848 83.1221 105.848Z" fill="#282F3A"/>
<path d="M83.1221 120.42H83.1091C82.7451 120.42 82.4511 120.125 82.4511 119.762V115.842C82.4511 115.478 82.7461 115.184 83.1091 115.184H83.1221C83.4851 115.184 83.7801 115.479 83.7801 115.842V119.762C83.7801 120.126 83.4851 120.42 83.1221 120.42Z" fill="#282F3A"/>
<path d="M32.9931 4.35295L30.3511 4.66594C29.6471 4.74894 29.0081 4.24595 28.9251 3.54195L28.7121 1.74794C28.6291 1.04394 29.1321 0.404947 29.8361 0.321947L32.4781 0.00895884C33.1821 -0.0740412 33.8211 0.428952 33.9041 1.13295L34.1171 2.92696C34.2011 3.63096 33.6971 4.26895 32.9931 4.35295Z" fill="#34383F"/>
<path d="M57.4381 4.35295L60.0801 4.66594C60.7841 4.74894 61.4231 4.24595 61.5061 3.54195L61.7181 1.74794C61.8021 1.04394 61.2981 0.404947 60.5941 0.321947L57.9521 0.00895884C57.2481 -0.0740412 56.6091 0.428952 56.5261 1.13295L56.3131 2.92696C56.2301 3.63096 56.7341 4.26895 57.4381 4.35295Z" fill="#34383F"/>
<path d="M35.4881 6.00194L32.7341 6.54195C32.1471 6.65695 31.5791 6.27495 31.4631 5.68795L31.4591 5.66695C31.3441 5.07995 31.7261 4.51095 32.3131 4.39595L35.0671 3.85594C35.6541 3.74094 36.2231 4.12295 36.3381 4.70995L36.3421 4.73094C36.4571 5.31794 36.0751 5.88694 35.4881 6.00194Z" fill="#C80406"/>
<path d="M54.9431 6.00194L57.6971 6.54195C58.2841 6.65695 58.8531 6.27495 58.9671 5.68795L58.9711 5.66695C59.0861 5.07995 58.7041 4.51095 58.1171 4.39595L55.3631 3.85594C54.7761 3.74094 54.2071 4.12295 54.0921 4.70995L54.0881 4.73094C53.9741 5.31794 54.3571 5.88694 54.9431 6.00194Z" fill="#124CDA"/>
<path d="M60.4411 34.455V32.754C60.4411 30.661 61.4501 29.521 63.5061 29.521H64.4781V24.606H66.5341V37.688H63.5061C61.4501 37.688 60.4411 36.548 60.4411 34.455ZM64.4781 35.819V31.39H63.5061C62.8521 31.39 62.4971 31.689 62.4971 32.624V34.586C62.4971 35.52 62.8521 35.8199 63.5061 35.8199L64.4781 35.819Z" fill="white"/>
<path d="M58.6271 34.5479C58.6271 36.6409 57.5241 37.8379 55.5061 37.8379C53.4881 37.8379 52.3851 36.6419 52.3851 34.5479V27.7449C52.3851 25.6519 53.4881 24.4559 55.5061 24.4559C57.5241 24.4559 58.6271 25.6519 58.6271 27.7449V34.5479ZM56.5711 27.6149C56.5711 26.6809 56.1601 26.3249 55.5061 26.3249C54.8521 26.3249 54.4411 26.6809 54.4411 27.6149V34.6789C54.4411 35.6139 54.8521 35.9689 55.5061 35.9689C56.1601 35.9689 56.5711 35.6139 56.5711 34.6789V27.6149Z" fill="white"/>
<path d="M50.1221 37.688H48.0661V26.4749H44.6831V24.606H50.1221V37.688Z" fill="white"/>
<path d="M42.8511 37.688H40.7951V24.606H42.8511V37.688Z" fill="white"/>
<path d="M32.4041 29.4839V27.7459C32.4041 25.6529 33.4501 24.4569 35.4681 24.4569C37.4861 24.4569 38.5331 25.6529 38.5331 27.7459V34.5489C38.5331 36.6419 37.4861 37.8389 35.4681 37.8389C33.4491 37.8389 32.4041 36.6429 32.4041 34.5489V33.2779H34.3471V34.6799C34.3471 35.6149 34.7581 35.9699 35.4121 35.9699C36.0661 35.9699 36.4771 35.6149 36.4771 34.6799V27.6159C36.4771 26.6819 36.0661 26.3449 35.4121 26.3449C34.7581 26.3449 34.3471 26.6819 34.3471 27.6159V29.4849H32.4041V29.4839Z" fill="white"/>
<path d="M28.1601 32.175H25.3381V30.306H28.1601V26.4749H24.6091V24.606H30.2161V37.688H24.6091V35.8199H28.1601V32.175Z" fill="white"/>
<path d="M37.6431 166.577V167.484C37.6431 168.6 37.1051 169.208 36.0091 169.208H35.4911V171.829H34.3951V164.854H36.0091C37.1051 164.853 37.6431 165.461 37.6431 166.577ZM35.4911 165.849V168.211H36.0091C36.3581 168.211 36.5471 168.052 36.5471 167.553V166.507C36.5471 166.009 36.3581 165.849 36.0091 165.849H35.4911Z" fill="#14181E"/>
<path d="M38.6101 166.527C38.6101 165.411 39.1981 164.773 40.2741 164.773C41.3501 164.773 41.9381 165.411 41.9381 166.527V170.154C41.9381 171.27 41.3501 171.908 40.2741 171.908C39.1981 171.908 38.6101 171.27 38.6101 170.154V166.527ZM39.7061 170.224C39.7061 170.722 39.9251 170.912 40.2741 170.912C40.6231 170.912 40.8421 170.722 40.8421 170.224V166.457C40.8421 165.958 40.6231 165.769 40.2741 165.769C39.9251 165.769 39.7061 165.958 39.7061 166.457V170.224Z" fill="#14181E"/>
<path d="M43.1451 164.853H44.2411V170.832H46.0451V171.829H43.1451V164.853Z" fill="#14181E"/>
<path d="M47.0221 164.853H48.1181V171.828H47.0221V164.853Z" fill="#14181E"/>
<path d="M52.5931 169.227V170.154C52.5931 171.27 52.0351 171.908 50.9591 171.908C49.8831 171.908 49.3251 171.27 49.3251 170.154V166.527C49.3251 165.411 49.8831 164.773 50.9591 164.773C52.0351 164.773 52.5931 165.411 52.5931 166.527V167.205H51.5571V166.458C51.5571 165.959 51.3381 165.77 50.9891 165.77C50.6401 165.77 50.4211 165.959 50.4211 166.458V170.225C50.4211 170.723 50.6401 170.903 50.9891 170.903C51.3381 170.903 51.5571 170.723 51.5571 170.225V169.228H52.5931V169.227Z" fill="#14181E"/>
<path d="M54.8551 167.793H56.3601V168.79H54.8551V170.832H56.7481V171.829H53.7581V164.854H56.7481V165.85H54.8551V167.793Z" fill="#14181E"/>
<path d="M38.5281 131.587C38.5281 134.754 37.0781 136.474 34.0181 136.474C31.1181 136.474 29.6151 134.754 29.6151 131.748V131.263H32.4071V131.936C32.4071 133.277 32.9981 133.787 33.9381 133.787C34.9851 133.787 35.5751 133.277 35.5751 131.478V128.042C35.0651 129.116 34.1521 129.708 32.8371 129.708C30.6621 129.708 29.5611 128.176 29.5611 125.411V121.975C29.5611 118.968 31.1461 117.249 34.0451 117.249C36.9441 117.249 38.5281 118.967 38.5281 121.975V131.587ZM35.5751 125.172V121.789C35.5751 120.446 34.9841 119.961 34.0451 119.961C33.1051 119.961 32.5141 120.446 32.5141 121.789V125.172C32.5141 126.513 33.1051 127.023 34.0451 127.023C34.9841 127.023 35.5751 126.513 35.5751 125.172Z" fill="#14181E"/>
<path d="M43.6581 119.827C45.9401 119.827 46.4501 118.726 46.9071 117.466H48.8941V136.259H45.9411V121.922H43.6591V119.827H43.6581Z" fill="#14181E"/>
<path d="M55.6351 119.827C57.9171 119.827 58.4271 118.726 58.8841 117.466H60.8711V136.259H57.9171V121.922H55.6351V119.827Z" fill="#14181E"/>
<path d="M52.6441 95.0549H37.7861V104.541H52.6441V95.0549Z" fill="#14181E"/>
<path d="M24.4711 95.0549C23.8401 95.0549 23.3281 95.5669 23.3281 96.1979V103.399C23.3281 104.03 23.8401 104.542 24.4711 104.542H37.7861V95.0559H24.4711V95.0549Z" fill="#C80406"/>
<path d="M65.9601 95.0549H52.6451V104.541H65.9601C66.5911 104.541 67.1031 104.029 67.1031 103.398V96.1969C67.1031 95.5669 66.5911 95.0549 65.9601 95.0549Z" fill="#124CDA"/>
<path d="M62.8481 102.087H27.5821C26.9521 102.087 26.4421 101.577 26.4421 100.947V98.938C26.4421 98.308 26.9521 97.798 27.5821 97.798H62.8481C63.4781 97.798 63.9881 98.308 63.9881 98.938V100.947C63.9881 101.576 63.4781 102.087 62.8481 102.087Z" fill="#14181E"/>
<path d="M52.6441 97.798H37.7861V102.087H52.6441V97.798Z" fill="#323D41"/>
<path d="M37.7861 97.798H27.5821C26.9521 97.798 26.4421 98.308 26.4421 98.938V100.947C26.4421 101.577 26.9521 102.087 27.5821 102.087H37.7861V97.798Z" fill="#FD0302"/>
<path d="M62.8481 97.798H52.6441V102.087H62.8481C63.4781 102.087 63.9881 101.577 63.9881 100.947V98.938C63.9881 98.308 63.4781 97.798 62.8481 97.798Z" fill="#1372D8"/>
</svg>
